<svg xmlns="http://www.w3.org/2000/svg" viewBox="0 0 130.59 118.41"><defs><style>.cls-1,.cls-3{fill:none;}.cls-1,.cls-2,.cls-3{stroke:#000;stroke-miterlimit:10;}.cls-1,.cls-2{stroke-width:0.96px;}.cls-2{fill:#fff;}.cls-4{font-size:12px;font-family:MyriadPro-Regular, Myriad Pro;}.cls-5{letter-spacing:-0.04em;}</style></defs><title>Asset 1</title><g id="Layer_2" data-name="Layer 2"><g id="Layer_1-2" data-name="Layer 1"><polyline class="cls-1" points="113.7 100.43 117.35 102.32 10.6 102.32 10.6 2.29 10.6 102.32 128.74 34.25"/><polyline class="cls-2" points="71.51 41.53 97.72 26.97 97.72 79.08 71.51 93.64"/><polyline class="cls-2" points="19.4 41.53 45.45 26.97 97.72 26.97"/><rect class="cls-2" x="19.4" y="41.53" width="52.11" height="52.11"/><polyline class="cls-1" points="8.68 6.13 10.6 2.29 12.77 6.13"/><polyline class="cls-1" points="125.08 34.25 129 34.25 127.04 37.62"/><line class="cls-3" x1="113.27" y1="104.78" x2="118.65" y2="102.63"/><text class="cls-4" transform="translate(124.94 44.94)">y</text><text class="cls-4" transform="translate(111.74 114)">x</text><text class="cls-4" transform="translate(0 10.04)">z</text><text class="cls-4" transform="translate(41.53 91.24)">dx</text><text class="cls-4" transform="translate(85.11 94.47)">dy</text><text class="cls-4" transform="translate(22.81 68.6)">dz</text><text class="cls-4" transform="translate(18.04 115.41)">(x, <tspan class="cls-5" x="13.99" y="0">y</tspan><tspan x="19.18" y="0">, z)</tspan></text></g></g></svg>